<svg width="26" height="25" viewBox="0 0 26 25" fill="none" xmlns="http://www.w3.org/2000/svg">
<path d="M2 12.3108V10.6216L3.69333 9H5.36L7 10.6216V12.3108L5.33333 14H3.66667L2 12.3108Z" fill="white" stroke="black" stroke-width="2" stroke-miterlimit="10" stroke-linecap="round" stroke-linejoin="round"/>
<path d="M19 12.3333V10.6667L20.6534 9H22.3069L24 10.68V12.3467L22.3069 14H20.6534L19 12.3333Z" fill="white" stroke="black" stroke-width="2" stroke-miterlimit="10" stroke-linecap="round" stroke-linejoin="round"/>
<path d="M15.4203 9H13.0278H10.4857L5 12.1718V16.5593L7.54206 20.2968L10.5797 22H13.1218H15.5143L18.4579 20.2968L21 16.5593V12.1718L15.4203 9Z" fill="white" stroke="black" stroke-width="2" stroke-linecap="round" stroke-linejoin="round"/>
<path d="M10 13V15" stroke="black" stroke-width="2" stroke-miterlimit="10" stroke-linecap="round" stroke-linejoin="round"/>
<path d="M16 13V15" stroke="black" stroke-width="2" stroke-miterlimit="10" stroke-linecap="round" stroke-linejoin="round"/>
<path d="M11 18L13 19L15 18" stroke="black" stroke-width="2" stroke-miterlimit="10" stroke-linecap="round" stroke-linejoin="round"/>
<path d="M16 5.33333V3.66667L17.6667 2H19.3333L21 3.66667V5.33333L19.3333 7H17.6667L16 5.33333Z" fill="white" stroke="black" stroke-width="2" stroke-miterlimit="10" stroke-linecap="round" stroke-linejoin="round"/>
<path d="M13 8.81249V7.24999L15.6042 5.34027" stroke="black" stroke-width="2" stroke-linecap="round" stroke-linejoin="round"/>
</svg>
