<svg width="80" height="80" viewBox="0 0 80 80" fill="none" xmlns="http://www.w3.org/2000/svg">
<path fill-rule="evenodd" clip-rule="evenodd" d="M22.5 29H34V43H28L22.9726 48.1713L23 55L28 60.0274H35L40 55V6L54 6V11.9023L63.9999 22H70.9999V36.0615H58.9999L54 31.272V33V61L41 74H22.0959L9 60.9041V42.3836L22.5 29Z" fill="white"/>
<path d="M34 29H36C36 27.8954 35.1046 27 34 27V29ZM22.5 29V27C21.9726 27 21.4665 27.2083 21.0919 27.5797L22.5 29ZM34 43V45C35.1046 45 36 44.1046 36 43H34ZM28 43V41C27.4598 41 26.9425 41.2185 26.566 41.6059L28 43ZM22.9726 48.1713L21.5386 46.7771C21.1737 47.1524 20.9705 47.6558 20.9726 48.1793L22.9726 48.1713ZM23 55L21 55.008C21.0021 55.5338 21.2112 56.0376 21.5819 56.4103L23 55ZM28 60.0274L26.5819 61.4377C26.9573 61.8152 27.4677 62.0274 28 62.0274V60.0274ZM35 60.0274V62.0274C35.5323 62.0274 36.0427 61.8152 36.4181 61.4377L35 60.0274ZM40 55L41.4181 56.4103C41.7908 56.0356 42 55.5285 42 55H40ZM40 6V4.00001C38.8954 4.00001 38 4.89544 38 6H40ZM54 6H56C56 5.46957 55.7893 4.96086 55.4142 4.58579C55.0391 4.21071 54.5304 4 54 4V6ZM54 11.9023H52C52 12.4294 52.208 12.9351 52.5789 13.3096L54 11.9023ZM63.9999 22L62.5788 23.4073C62.9545 23.7866 63.4661 24 63.9999 24V22ZM70.9999 22H72.9999C72.9999 20.8955 72.1045 20 70.9999 20V22ZM70.9999 36.0615V38.0615C72.1045 38.0615 72.9999 37.1661 72.9999 36.0615H70.9999ZM58.9999 36.0615L57.6164 37.5058C57.9887 37.8624 58.4844 38.0615 58.9999 38.0615V36.0615ZM54 31.272L55.3835 29.8277C54.805 29.2735 53.9516 29.118 53.2148 29.4325C52.478 29.747 52 30.4709 52 31.272H54ZM54 61L55.4142 62.4142C55.7893 62.0391 56 61.5304 56 61H54ZM41 74V76C41.5304 76 42.0391 75.7893 42.4142 75.4142L41 74ZM22.0959 74L20.6817 75.4142C21.0568 75.7893 21.5655 76 22.0959 76V74ZM9 60.9041H7C7 61.4345 7.21071 61.9432 7.58579 62.3183L9 60.9041ZM9 42.3836L7.59192 40.9633C7.2131 41.3388 7 41.8502 7 42.3836H9ZM34 27H22.5V31H34V27ZM36 43V29H32V43H36ZM28 45H34V41H28V45ZM24.4066 49.5654L29.434 44.3941L26.566 41.6059L21.5386 46.7771L24.4066 49.5654ZM25 54.992L24.9726 48.1632L20.9726 48.1793L21 55.008L25 54.992ZM29.4181 58.6171L24.4181 53.5897L21.5819 56.4103L26.5819 61.4377L29.4181 58.6171ZM35 58.0274H28V62.0274H35V58.0274ZM38.5819 53.5897L33.5819 58.6171L36.4181 61.4377L41.4181 56.4103L38.5819 53.5897ZM38 6V55H42V6H38ZM54 4L40 4.00001V8.00001L54 8V4ZM56 11.9023V6H52V11.9023H56ZM65.421 20.5927L55.4211 10.495L52.5789 13.3096L62.5788 23.4073L65.421 20.5927ZM70.9999 20H63.9999V24H70.9999V20ZM72.9999 36.0615V22H68.9999V36.0615H72.9999ZM58.9999 38.0615H70.9999V34.0615H58.9999V38.0615ZM52.6165 32.7162L57.6164 37.5058L60.3834 34.6172L55.3835 29.8277L52.6165 32.7162ZM56 33V31.272H52V33H56ZM56 61V33H52V61H56ZM42.4142 75.4142L55.4142 62.4142L52.5858 59.5858L39.5858 72.5858L42.4142 75.4142ZM22.0959 76H41V72H22.0959V76ZM7.58579 62.3183L20.6817 75.4142L23.5102 72.5858L10.4142 59.4898L7.58579 62.3183ZM7 42.3836V60.9041H11V42.3836H7ZM21.0919 27.5797L7.59192 40.9633L10.4081 43.8039L23.9081 30.4203L21.0919 27.5797Z" fill="black"/>
</svg>
