<svg width="25" height="25" viewBox="0 0 25 25" fill="none" xmlns="http://www.w3.org/2000/svg">
<path fill-rule="evenodd" clip-rule="evenodd" d="M7.19868 9H10V13H8.5L7 14.5V17.5L8.5 19H11.5L13.0346 17.5083V2H17V3.40032L20.7014 7.00002H23.0691L23.0693 11.0789H19.1987L17 8.88028V19.3638L13.0346 23H7.30055L3 19.3638V13.426L7.19868 9Z" fill="white"/>
<path d="M10 9H11C11 8.44772 10.5523 8 10 8V9ZM7.19868 9V8C6.92432 8 6.66201 8.11272 6.47319 8.31177L7.19868 9ZM10 13V14C10.5523 14 11 13.5523 11 13H10ZM8.5 13V12C8.23478 12 7.98043 12.1054 7.79289 12.2929L8.5 13ZM7 14.5L6.29289 13.7929C6.10536 13.9804 6 14.2348 6 14.5H7ZM7 17.5H6C6 17.7652 6.10536 18.0196 6.29289 18.2071L7 17.5ZM8.5 19L7.79289 19.7071C7.98043 19.8946 8.23478 20 8.5 20V19ZM11.5 19V20C11.7603 20 12.0104 19.8985 12.197 19.7171L11.5 19ZM13.0346 17.5083L13.7316 18.2253C13.9253 18.037 14.0346 17.7784 14.0346 17.5083H13.0346ZM13.0346 2V1C12.4823 1 12.0346 1.44772 12.0346 2H13.0346ZM17 2H18C18 1.44772 17.5523 1 17 1V2ZM17 3.40032H16C16 3.67036 16.1092 3.92893 16.3028 4.1172L17 3.40032ZM20.7014 7.00002L20.0042 7.71691C20.1909 7.89845 20.441 8.00002 20.7014 8.00002V7.00002ZM23.0691 7.00002L24.0691 6.99996C24.0691 6.4477 23.6214 6.00002 23.0691 6.00002V7.00002ZM23.0693 11.0789V12.0789C23.3346 12.0789 23.5889 11.9736 23.7765 11.786C23.964 11.5985 24.0694 11.3441 24.0693 11.0789L23.0693 11.0789ZM19.1987 11.0789L18.4916 11.786C18.6791 11.9736 18.9334 12.0789 19.1987 12.0789V11.0789ZM17 8.88028L17.7071 8.17317C17.4211 7.88717 16.991 7.80162 16.6173 7.9564C16.2436 8.11118 16 8.47581 16 8.88028H17ZM17 19.3638L17.6759 20.1009C17.8824 19.9115 18 19.6441 18 19.3638H17ZM13.0346 23V24C13.2849 24 13.526 23.9062 13.7105 23.737L13.0346 23ZM7.30055 23L6.6549 23.7636C6.83541 23.9163 7.06416 24 7.30055 24V23ZM3 19.3638H2C2 19.6581 2.12962 19.9374 2.35434 20.1275L3 19.3638ZM3 13.426L2.27451 12.7378C2.09825 12.9236 2 13.1699 2 13.426H3ZM10 8H7.19868V10H10V8ZM11 13V9H9V13H11ZM8.5 14H10V12H8.5V14ZM7.70711 15.2071L9.20711 13.7071L7.79289 12.2929L6.29289 13.7929L7.70711 15.2071ZM8 17.5V14.5H6V17.5H8ZM9.20711 18.2929L7.70711 16.7929L6.29289 18.2071L7.79289 19.7071L9.20711 18.2929ZM11.5 18H8.5V20H11.5V18ZM12.3376 16.7912L10.803 18.2829L12.197 19.7171L13.7316 18.2253L12.3376 16.7912ZM12.0346 2V17.5083H14.0346V2H12.0346ZM17 1H13.0346V3H17V1ZM18 3.40032V2H16V3.40032H18ZM21.3986 6.28313L17.6972 2.68343L16.3028 4.1172L20.0042 7.71691L21.3986 6.28313ZM23.0691 6.00002H20.7014V8.00002H23.0691V6.00002ZM24.0693 11.0789L24.0691 6.99996L22.0691 7.00008L22.0693 11.079L24.0693 11.0789ZM19.1987 12.0789H23.0693V10.0789H19.1987V12.0789ZM16.2929 9.58738L18.4916 11.786L19.9058 10.3718L17.7071 8.17317L16.2929 9.58738ZM18 19.3638V8.88028H16V19.3638H18ZM13.7105 23.737L17.6759 20.1009L16.3241 18.6268L12.3588 22.263L13.7105 23.737ZM7.30055 24H13.0346V22H7.30055V24ZM2.35434 20.1275L6.6549 23.7636L7.94621 22.2364L3.64566 18.6002L2.35434 20.1275ZM2 13.426V19.3638H4V13.426H2ZM6.47319 8.31177L2.27451 12.7378L3.72549 14.1142L7.92417 9.68823L6.47319 8.31177Z" fill="black"/>
</svg>
