<svg width="25" height="25" viewBox="0 0 25 25" fill="none" xmlns="http://www.w3.org/2000/svg">
<path d="M5 8H8V23H5V8Z" fill="white" stroke="black" stroke-width="2" stroke-linejoin="round"/>
<path d="M5.01929 2V5H16.3526L17.9717 6.9092V9.13647L16.3526 11H11V14.0683L17.9717 23H22L15 14.0683H17.5L21 10.5V5.72727L17.9717 2H5.01929Z" fill="white"/>
<path d="M5.01929 5H4.01929C4.01929 5.55228 4.467 6 5.01929 6V5ZM5.01929 2V1C4.467 1 4.01929 1.44772 4.01929 2H5.01929ZM17.9717 2L18.7478 1.36942C18.5579 1.1357 18.2728 1 17.9717 1V2ZM21 5.72727H22C22 5.49761 21.9209 5.27494 21.7761 5.09669L21 5.72727ZM21 10.5L21.7139 11.2002C21.8973 11.0133 22 10.7619 22 10.5H21ZM17.5 14.0683V15.0683C17.7686 15.0683 18.0258 14.9603 18.2139 14.7685L17.5 14.0683ZM15 14.0683V13.0683H12.9458L14.2129 14.6851L15 14.0683ZM22 23V24C22.3826 24 22.7317 23.7817 22.8991 23.4377C23.0666 23.0937 23.0231 22.6843 22.7871 22.3831L22 23ZM17.9717 23L17.1834 23.6153C17.3729 23.8581 17.6637 24 17.9717 24V23ZM11 14.0683H10C10 14.2913 10.0745 14.5078 10.2117 14.6836L11 14.0683ZM11 11V10C10.4477 10 10 10.4477 10 11H11ZM16.3526 11V12C16.6422 12 16.9176 11.8745 17.1075 11.6559L16.3526 11ZM17.9717 9.13647L18.7266 9.79233C18.8846 9.61039 18.9717 9.37749 18.9717 9.13647H17.9717ZM17.9717 6.9092H18.9717C18.9717 6.67231 18.8876 6.4431 18.7344 6.26243L17.9717 6.9092ZM16.3526 5L17.1153 4.35323C16.9253 4.12917 16.6464 4 16.3526 4V5ZM6.01929 5V2H4.01929V5H6.01929ZM5.01929 3H17.9717V1H5.01929V3ZM17.1955 2.63058L20.2239 6.35786L21.7761 5.09669L18.7478 1.36942L17.1955 2.63058ZM20 5.72727V10.5H22V5.72727H20ZM20.2861 9.79976L16.7861 13.3681L18.2139 14.7685L21.7139 11.2002L20.2861 9.79976ZM17.5 13.0683H15V15.0683H17.5V13.0683ZM14.2129 14.6851L21.2129 23.6169L22.7871 22.3831L15.7871 13.4514L14.2129 14.6851ZM22 22H17.9717V24H22V22ZM18.76 22.3847L11.7883 13.453L10.2117 14.6836L17.1834 23.6153L18.76 22.3847ZM12 14.0683V11H10V14.0683H12ZM11 12H16.3526V10H11V12ZM17.1075 11.6559L18.7266 9.79233L17.2168 8.48062L15.5977 10.3441L17.1075 11.6559ZM18.9717 9.13647V6.9092H16.9717V9.13647H18.9717ZM18.7344 6.26243L17.1153 4.35323L15.5899 5.64677L17.209 7.55597L18.7344 6.26243ZM16.3526 4H5.01929V6H16.3526V4Z" fill="black"/>
</svg>
