<svg width="80" height="80" viewBox="0 0 80 80" fill="none" xmlns="http://www.w3.org/2000/svg">
<rect x="16" y="23" width="10" height="49" fill="white" stroke="black" stroke-width="4" stroke-linejoin="round"/>
<path d="M16 7V17H51L56 22V29L51 34H33.5V44.5L54 73H68.5L47 44H55L66 33V18L55 7H16Z" fill="white"/>
<path d="M16 17H14C14 18.1046 14.8954 19 16 19V17ZM16 7V5C14.8954 5 14 5.89543 14 7H16ZM55 7L56.4142 5.58579C56.0391 5.21071 55.5304 5 55 5V7ZM66 18H68C68 17.4696 67.7893 16.9609 67.4142 16.5858L66 18ZM66 33L67.4142 34.4142C67.7893 34.0391 68 33.5304 68 33H66ZM55 44V46C55.5304 46 56.0391 45.7893 56.4142 45.4142L55 44ZM47 44V42H43.0275L45.3934 45.1911L47 44ZM68.5 73V75C69.2555 75 69.9466 74.5742 70.2864 73.8994C70.6261 73.2245 70.5566 72.4158 70.1066 71.8089L68.5 73ZM54 73L52.3764 74.1679C52.7522 74.6903 53.3564 75 54 75V73ZM33.5 44.5H31.5C31.5 44.9191 31.6317 45.3276 31.8764 45.6679L33.5 44.5ZM33.5 34V32C32.3954 32 31.5 32.8954 31.5 34H33.5ZM51 34V36C51.5304 36 52.0391 35.7893 52.4142 35.4142L51 34ZM56 29L57.4142 30.4142C57.7893 30.0391 58 29.5304 58 29H56ZM56 22H58C58 21.4696 57.7893 20.9609 57.4142 20.5858L56 22ZM51 17L52.4142 15.5858C52.0391 15.2107 51.5304 15 51 15V17ZM18 17V7H14V17H18ZM16 9H55V5H16V9ZM53.5858 8.41421L64.5858 19.4142L67.4142 16.5858L56.4142 5.58579L53.5858 8.41421ZM64 18V33H68V18H64ZM64.5858 31.5858L53.5858 42.5858L56.4142 45.4142L67.4142 34.4142L64.5858 31.5858ZM55 42H47V46H55V42ZM45.3934 45.1911L66.8934 74.1911L70.1066 71.8089L48.6066 42.8089L45.3934 45.1911ZM68.5 71H54V75H68.5V71ZM55.6236 71.8321L35.1236 43.3321L31.8764 45.6679L52.3764 74.1679L55.6236 71.8321ZM35.5 44.5V34H31.5V44.5H35.5ZM33.5 36H51V32H33.5V36ZM52.4142 35.4142L57.4142 30.4142L54.5858 27.5858L49.5858 32.5858L52.4142 35.4142ZM58 29V22H54V29H58ZM57.4142 20.5858L52.4142 15.5858L49.5858 18.4142L54.5858 23.4142L57.4142 20.5858ZM51 15H16V19H51V15Z" fill="black"/>
</svg>
