<svg width="80" height="80" viewBox="0 0 80 80" fill="none" xmlns="http://www.w3.org/2000/svg">
<path d="M44 33V12L47 9H51L54 12V33L51 36H47L44 33Z" fill="white" stroke="black" stroke-width="4" stroke-miterlimit="10" stroke-linecap="round" stroke-linejoin="round"/>
<path d="M36 47L36 68L33 71L29 71L26 68L26 47L29 44L33 44L36 47Z" fill="white" stroke="black" stroke-width="4" stroke-miterlimit="10" stroke-linecap="round" stroke-linejoin="round"/>
<path d="M47 44L68 44L71 47L71 51L68 54L47 54L44 51L44 47L47 44Z" fill="white" stroke="black" stroke-width="4" stroke-miterlimit="10" stroke-linecap="round" stroke-linejoin="round"/>
<path d="M33 36L12 36L9 33L9 29L12 26L33 26L36 29L36 33L33 36Z" fill="white" stroke="black" stroke-width="4" stroke-miterlimit="10" stroke-linecap="round" stroke-linejoin="round"/>
<path d="M61 33L61 29L64 26H68L71 29V33L68 36H61V33Z" fill="white" stroke="black" stroke-width="4" stroke-miterlimit="10" stroke-linecap="round" stroke-linejoin="round"/>
<path d="M19 47L19 51L16 54L12 54L9 51L9 47L12 44L19 44L19 47Z" fill="white" stroke="black" stroke-width="4" stroke-miterlimit="10" stroke-linecap="round" stroke-linejoin="round"/>
<path d="M47 61L51 61L54 64L54 68L51 71L47 71L44 68L44 61L47 61Z" fill="white" stroke="black" stroke-width="4" stroke-miterlimit="10" stroke-linecap="round" stroke-linejoin="round"/>
<path d="M33 19L29 19L26 16L26 12L29 9L33 9L36 12L36 19L33 19Z" fill="white" stroke="black" stroke-width="4" stroke-miterlimit="10" stroke-linecap="round" stroke-linejoin="round"/>
</svg>
