<svg width="50" height="50" viewBox="0 0 50 50" fill="none" xmlns="http://www.w3.org/2000/svg">
<path d="M10.5 16.5H16.5V45.5H10.5V16.5Z" fill="white" stroke="black" stroke-width="3" stroke-linejoin="round"/>
<path d="M10.375 5.5L10.5 11.625H31.875L35 14.75V19.125L31.875 22.5H21.5V28.5L33.5 45.5H42.5L29 28.5H34.375L41.5 21.5V12.5L34.5 5.5H10.375Z" fill="white"/>
<path d="M10.5 11.625L9.00031 11.6556C9.01697 12.4719 9.6835 13.125 10.5 13.125V11.625ZM10.375 5.5V4C9.97187 4 9.58571 4.16227 9.30357 4.45022C9.02144 4.73817 8.86709 5.12756 8.87531 5.53061L10.375 5.5ZM34.5 5.5L35.5607 4.43934C35.2794 4.15804 34.8978 4 34.5 4V5.5ZM41.5 12.5H43C43 12.1022 42.842 11.7206 42.5607 11.4393L41.5 12.5ZM41.5 21.5L42.5512 22.57C42.8383 22.288 43 21.9024 43 21.5H41.5ZM34.375 28.5V30C34.7682 30 35.1457 29.8456 35.4262 29.57L34.375 28.5ZM29 28.5V27H25.8934L27.8253 29.4328L29 28.5ZM42.5 45.5V47C43.0756 47 43.6005 46.6706 43.8508 46.1522C44.1011 45.6338 44.0326 45.018 43.6747 44.5672L42.5 45.5ZM33.5 45.5L32.2745 46.365C32.5556 46.7632 33.0126 47 33.5 47V45.5ZM21.5 28.5H20C20 28.8098 20.0959 29.1119 20.2745 29.365L21.5 28.5ZM21.5 22.5V21C20.6716 21 20 21.6716 20 22.5H21.5ZM31.875 22.5V24C32.2928 24 32.6918 23.8257 32.9756 23.5191L31.875 22.5ZM35 19.125L36.1006 20.1441C36.3574 19.8668 36.5 19.5029 36.5 19.125H35ZM35 14.75H36.5C36.5 14.3522 36.342 13.9706 36.0607 13.6893L35 14.75ZM31.875 11.625L32.9357 10.5643C32.6544 10.283 32.2728 10.125 31.875 10.125V11.625ZM11.9997 11.5944L11.8747 5.46939L8.87531 5.53061L9.00031 11.6556L11.9997 11.5944ZM10.375 7H34.5V4H10.375V7ZM33.4393 6.56066L40.4393 13.5607L42.5607 11.4393L35.5607 4.43934L33.4393 6.56066ZM40 12.5V21.5H43V12.5H40ZM40.4488 20.43L33.3238 27.43L35.4262 29.57L42.5512 22.57L40.4488 20.43ZM34.375 27H29V30H34.375V27ZM27.8253 29.4328L41.3253 46.4328L43.6747 44.5672L30.1747 27.5672L27.8253 29.4328ZM42.5 44H33.5V47H42.5V44ZM34.7255 44.635L22.7255 27.635L20.2745 29.365L32.2745 46.365L34.7255 44.635ZM23 28.5V22.5H20V28.5H23ZM21.5 24H31.875V21H21.5V24ZM32.9756 23.5191L36.1006 20.1441L33.8994 18.1059L30.7744 21.4809L32.9756 23.5191ZM36.5 19.125V14.75H33.5V19.125H36.5ZM36.0607 13.6893L32.9357 10.5643L30.8143 12.6857L33.9393 15.8107L36.0607 13.6893ZM31.875 10.125H10.5V13.125H31.875V10.125Z" fill="black"/>
</svg>
