<svg width="50" height="50" viewBox="0 0 50 50" fill="none" xmlns="http://www.w3.org/2000/svg">
<path d="M30.0492 9.96907H25.3607H19.9508L18.1475 7L9.4918 9.96907L3 23.701V36.3196L13.8197 43L17.4262 38.1753H25H32.5738L36.1803 43L47 36.3196V23.701L40.5082 9.96907L31.8525 7L30.0492 9.96907Z" fill="white" stroke="black" stroke-width="3" stroke-linejoin="round"/>
<path d="M29.5 29.5V23.5H35.5V29.5H29.5Z" fill="white" stroke="black" stroke-width="3" stroke-miterlimit="10" stroke-linecap="round" stroke-linejoin="round"/>
<path d="M20.5 29.5V23.5H14.5V29.5H20.5Z" fill="white" stroke="black" stroke-width="3" stroke-miterlimit="10" stroke-linecap="round" stroke-linejoin="round"/>
<path d="M37.7442 36.8024C38.4635 36.3913 38.7134 35.4751 38.3024 34.7558C37.8913 34.0365 36.9751 33.7866 36.2558 34.1976L37.7442 36.8024ZM32.4942 39.8024L37.7442 36.8024L36.2558 34.1976L31.0058 37.1976L32.4942 39.8024Z" fill="black"/>
<path d="M12.2558 36.8024C11.5365 36.3913 11.2866 35.4751 11.6976 34.7558C12.1087 34.0365 13.0249 33.7866 13.7442 34.1976L12.2558 36.8024ZM17.5058 39.8024L12.2558 36.8024L13.7442 34.1976L18.9942 37.1976L17.5058 39.8024Z" fill="black"/>
</svg>
