<svg width="80" height="80" viewBox="0 0 80 80" fill="none" xmlns="http://www.w3.org/2000/svg">
<path d="M48.1148 19.0412H41.5082H33.8852L31.3443 15L19.1475 19.0412L10 37.732V54.9072L25.2459 64L30.3279 57.433H41H51.6721L56.7541 64L72 54.9072V37.732L62.8525 19.0412L50.6557 15L48.1148 19.0412Z" fill="white" stroke="black" stroke-width="4" stroke-linejoin="round"/>
<path d="M46 46V38H54V46H46Z" fill="white" stroke="black" stroke-width="4" stroke-miterlimit="10" stroke-linecap="round" stroke-linejoin="round"/>
<path d="M34 46V38H26V46H34Z" fill="white" stroke="black" stroke-width="4" stroke-miterlimit="10" stroke-linecap="round" stroke-linejoin="round"/>
<path d="M57.9923 55.7365C58.9513 55.1885 59.2845 53.9668 58.7365 53.0077C58.1885 52.0487 56.9668 51.7155 56.0077 52.2635L57.9923 55.7365ZM50.9923 59.7365L57.9923 55.7365L56.0077 52.2635L49.0077 56.2635L50.9923 59.7365Z" fill="black"/>
<path d="M24.0077 55.7365C23.0487 55.1885 22.7155 53.9668 23.2635 53.0077C23.8115 52.0487 25.0332 51.7155 25.9923 52.2635L24.0077 55.7365ZM31.0077 59.7365L24.0077 55.7365L25.9923 52.2635L32.9923 56.2635L31.0077 59.7365Z" fill="black"/>
</svg>
