<svg width="25" height="25" viewBox="0 0 25 25" fill="none" xmlns="http://www.w3.org/2000/svg">
<path d="M15.0246 5.40206H12.6803H9.97541L9.07377 4L4.7459 5.40206L1.5 11.8866V17.8454L6.90984 21L8.71311 18.7216H12.5H16.2869L18.0902 21L23.5 17.8454V11.8866L20.2541 5.40206L15.9262 4L15.0246 5.40206Z" fill="white" stroke="black" stroke-width="2" stroke-linejoin="round"/>
<path d="M19.0547 17.8321C19.5142 17.5257 19.6384 16.9048 19.3321 16.4453C19.0257 15.9858 18.4048 15.8616 17.9453 16.1679L19.0547 17.8321ZM16.0547 19.8321L19.0547 17.8321L17.9453 16.1679L14.9453 18.1679L16.0547 19.8321Z" fill="black"/>
<path d="M5.9453 17.8321C5.48577 17.5257 5.3616 16.9048 5.66795 16.4453C5.9743 15.9858 6.59517 15.8616 7.0547 16.1679L5.9453 17.8321ZM8.9453 19.8321L5.9453 17.8321L7.0547 16.1679L10.0547 18.1679L8.9453 19.8321Z" fill="black"/>
<path d="M10 12V14" stroke="black" stroke-width="2" stroke-miterlimit="10" stroke-linecap="round" stroke-linejoin="round"/>
<path d="M15 12V14" stroke="black" stroke-width="2" stroke-miterlimit="10" stroke-linecap="round" stroke-linejoin="round"/>
</svg>
