<svg width="50" height="50" viewBox="0 0 50 50" fill="none" xmlns="http://www.w3.org/2000/svg">
<path d="M27.5 20.3889V5.61111L29.6 3.5H32.4L34.5 5.61111V20.3889L32.4 22.5H29.6L27.5 20.3889Z" fill="white" stroke="black" stroke-width="3" stroke-miterlimit="10" stroke-linecap="round" stroke-linejoin="round"/>
<path d="M29.6111 27.5L44.3889 27.5L46.5 29.6L46.5 32.4L44.3889 34.5L29.6111 34.5L27.5 32.4L27.5 29.6L29.6111 27.5Z" fill="white" stroke="black" stroke-width="3" stroke-miterlimit="10" stroke-linecap="round" stroke-linejoin="round"/>
<path d="M39.5 20.4L39.5 17.6L41.6 15.5H44.4L46.5 17.6V20.4L44.4 22.5H39.5V20.4Z" fill="white" stroke="black" stroke-width="3" stroke-miterlimit="10" stroke-linecap="round" stroke-linejoin="round"/>
<path d="M29.6 39.5L32.4 39.5L34.5 41.6V44.4L32.4 46.5L29.6 46.5L27.5 44.4V39.5L29.6 39.5Z" fill="white" stroke="black" stroke-width="3" stroke-miterlimit="10" stroke-linecap="round" stroke-linejoin="round"/>
<path d="M22.5 29.7222L22.5 45.2778L20.4 47.5L17.6 47.5L15.5 45.2778L15.5 29.7222L17.6 27.5L20.4 27.5L22.5 29.7222Z" fill="white" stroke="black" stroke-width="3" stroke-miterlimit="10" stroke-linecap="round" stroke-linejoin="round"/>
<path d="M20.3889 22.5L5.61111 22.5L3.5 20.4L3.5 17.6L5.61111 15.5L20.3889 15.5L22.5 17.6L22.5 20.4L20.3889 22.5Z" fill="white" stroke="black" stroke-width="3" stroke-miterlimit="10" stroke-linecap="round" stroke-linejoin="round"/>
<path d="M10.5 29.6L10.5 32.4L8.4 34.5L5.6 34.5L3.5 32.4L3.5 29.6L5.6 27.5L10.5 27.5L10.5 29.6Z" fill="white" stroke="black" stroke-width="3" stroke-miterlimit="10" stroke-linecap="round" stroke-linejoin="round"/>
<path d="M20.4 10.5L17.6 10.5L15.5 8.4L15.5 5.6L17.6 3.5L20.4 3.5L22.5 5.6L22.5 10.5L20.4 10.5Z" fill="white" stroke="black" stroke-width="3" stroke-miterlimit="10" stroke-linecap="round" stroke-linejoin="round"/>
</svg>
