<svg width="50" height="50" viewBox="0 0 50 50" fill="none" xmlns="http://www.w3.org/2000/svg">
<path d="M2.5 25.3055V21.8333L6.02778 18.5H9.5L12.9167 21.8333V25.3055L9.44444 28.7778H5.97222L2.5 25.3055Z" fill="white" stroke="black" stroke-width="3" stroke-miterlimit="10" stroke-linecap="round" stroke-linejoin="round"/>
<path d="M37 25.4444V21.9722L40.4722 18.5H43.9444L47.5 22V25.4722L43.9444 28.9167H40.4722L37 25.4444Z" fill="white" stroke="black" stroke-width="3" stroke-miterlimit="10" stroke-linecap="round" stroke-linejoin="round"/>
<path d="M30.2944 17.5H25.0607H19.5L7.5 24.0875V33.2L13.0607 40.9625L19.7056 44.5H25.2664H30.5L36.9393 40.9625L42.5 33.2V24.0875L30.2944 17.5Z" fill="white" stroke="black" stroke-width="3" stroke-linecap="round" stroke-linejoin="round"/>
<path d="M30.5557 10.7222V7.24999L34.0279 3.77777H37.5001L40.9723 7.24999V10.7222L37.5001 14.1944H34.0279L30.5557 10.7222Z" fill="white" stroke="black" stroke-width="3" stroke-miterlimit="10" stroke-linecap="round" stroke-linejoin="round"/>
<path d="M25 16.625V13.5L30.2083 9.68054" stroke="black" stroke-width="3" stroke-linecap="round" stroke-linejoin="round"/>
<path d="M31.8889 35H24.9444H18L20.4306 38.4722L24.9444 40.2083L30.1528 38.4722L31.8889 35Z" stroke="black" stroke-width="2" stroke-linecap="round" stroke-linejoin="round"/>
<path d="M14 31H19V26L16.6251 24.2639L14 26.3472V31Z" stroke="black" stroke-width="2" stroke-linecap="round" stroke-linejoin="round"/>
<path d="M36 31H31V26L33.3749 24.2639L36 26.3472V31Z" stroke="black" stroke-width="2" stroke-linecap="round" stroke-linejoin="round"/>
</svg>
