<svg width="50" height="50" viewBox="0 0 50 50" fill="none" xmlns="http://www.w3.org/2000/svg">
<path fill-rule="evenodd" clip-rule="evenodd" d="M12.2868 17.625H19V27.5H15.5L12.5 30.5V35.5L15.5 38.5H21L24.5 34.9549V2.5H33.5V5.45559L40.5445 12.5H45.4995L45.5 21.5H37.0001L33.5 17.9999V38.8382L24.7132 47.625H12.2868L3.5 38.8382V26.4118L12.2868 17.625Z" fill="white"/>
<path d="M19 17.625H20.5C20.5 16.7966 19.8284 16.125 19 16.125V17.625ZM12.2868 17.625V16.125C11.889 16.125 11.5074 16.283 11.2261 16.5643L12.2868 17.625ZM19 27.5V29C19.8284 29 20.5 28.3284 20.5 27.5H19ZM15.5 27.5V26C15.1022 26 14.7206 26.158 14.4393 26.4393L15.5 27.5ZM12.5 30.5L11.4393 29.4393C11.158 29.7206 11 30.1022 11 30.5H12.5ZM12.5 35.5H11C11 35.8978 11.158 36.2794 11.4393 36.5607L12.5 35.5ZM15.5 38.5L14.4393 39.5607C14.7206 39.842 15.1022 40 15.5 40V38.5ZM21 38.5V40C21.4011 40 21.7856 39.8393 22.0674 39.5539L21 38.5ZM24.5 34.9549L25.5674 36.0088C25.8446 35.7281 26 35.3494 26 34.9549H24.5ZM24.5 2.5V1C23.6716 1 23 1.67157 23 2.5L24.5 2.5ZM33.5 2.5H35C35 1.67157 34.3284 1 33.5 1V2.5ZM33.5 5.45559H32C32 5.85342 32.158 6.23495 32.4393 6.51626L33.5 5.45559ZM40.5445 12.5L39.4839 13.5607C39.7652 13.842 40.1467 14 40.5445 14V12.5ZM45.4995 12.5L46.9995 12.4999C46.9994 11.6715 46.3279 11 45.4995 11V12.5ZM45.5 21.5V23C45.8978 23 46.2794 22.8419 46.5607 22.5606C46.842 22.2793 47 21.8977 47 21.4999L45.5 21.5ZM37.0001 21.5L35.9394 22.5606C36.2207 22.8419 36.6022 23 37.0001 23V21.5ZM33.5 17.9999L34.5607 16.9392C34.1317 16.5102 33.4865 16.3819 32.926 16.6141C32.3655 16.8462 32 17.3932 32 17.9999H33.5ZM33.5 38.8382L34.5607 39.8989C34.842 39.6176 35 39.236 35 38.8382H33.5ZM24.7132 47.625V49.125C25.111 49.125 25.4926 48.967 25.7739 48.6857L24.7132 47.625ZM12.2868 47.625L11.2261 48.6857C11.5074 48.967 11.889 49.125 12.2868 49.125V47.625ZM3.5 38.8382H2C2 39.236 2.15804 39.6176 2.43934 39.8989L3.5 38.8382ZM3.5 26.4118L2.43934 25.3511C2.15804 25.6324 2 26.014 2 26.4118H3.5ZM19 16.125H12.2868V19.125H19V16.125ZM20.5 27.5V17.625H17.5V27.5H20.5ZM15.5 29H19V26H15.5V29ZM13.5607 31.5607L16.5607 28.5607L14.4393 26.4393L11.4393 29.4393L13.5607 31.5607ZM14 35.5V30.5H11V35.5H14ZM16.5607 37.4393L13.5607 34.4393L11.4393 36.5607L14.4393 39.5607L16.5607 37.4393ZM21 37H15.5V40H21V37ZM23.4326 33.9011L19.9326 37.4461L22.0674 39.5539L25.5674 36.0088L23.4326 33.9011ZM23 2.5V34.9549H26V2.5H23ZM33.5 1H24.5V4H33.5V1ZM35 5.45559V2.5H32V5.45559H35ZM41.6052 11.4394L34.5607 4.39493L32.4393 6.51626L39.4839 13.5607L41.6052 11.4394ZM45.4995 11H40.5445V14H45.4995V11ZM47 21.4999L46.9995 12.4999L43.9995 12.5001L44 21.5L47 21.4999ZM37.0001 23H45.5V20H37.0001V23ZM32.4393 19.0606L35.9394 22.5606L38.0607 20.4393L34.5607 16.9392L32.4393 19.0606ZM35 38.8382V17.9999H32V38.8382H35ZM25.7739 48.6857L34.5607 39.8989L32.4393 37.7775L23.6525 46.5643L25.7739 48.6857ZM12.2868 49.125H24.7132V46.125H12.2868V49.125ZM2.43934 39.8989L11.2261 48.6857L13.3475 46.5643L4.56066 37.7775L2.43934 39.8989ZM2 26.4118V38.8382H5V26.4118H2ZM11.2261 16.5643L2.43934 25.3511L4.56066 27.4725L13.3475 18.6857L11.2261 16.5643Z" fill="black"/>
</svg>
