<svg width="80" height="80" viewBox="0 0 80 80" fill="none" xmlns="http://www.w3.org/2000/svg">
<path d="M40 53.5L34.875 63.25L20.25 67L17 63.6667L20.25 49.8333L30.1519 45.038L15 41.5L7 15L35 26L39 42L40 42.7692L41 42L45 26L73 15L65 41.5L49.8481 45.038L59.75 49.8333L63 63.6667L59.75 67L45.125 63.25L40 53.5Z" fill="white" stroke="black" stroke-width="4" stroke-miterlimit="10" stroke-linecap="round" stroke-linejoin="round"/>
<path d="M10.5 24.5L22.5 27.5" stroke="black" stroke-width="3" stroke-miterlimit="10" stroke-linecap="round" stroke-linejoin="round"/>
<path d="M69.5 24.5L57.5 27.5" stroke="black" stroke-width="3" stroke-miterlimit="10" stroke-linecap="round" stroke-linejoin="round"/>
<path d="M66.5 32.5L54.5 35.5" stroke="black" stroke-width="3" stroke-miterlimit="10" stroke-linecap="round" stroke-linejoin="round"/>
<path d="M13 32.5L25 35.5" stroke="black" stroke-width="3" stroke-miterlimit="10" stroke-linecap="round" stroke-linejoin="round"/>
</svg>
